HIERARCHY
ROOT Hips
{
	OFFSET	0.00	0.00	0.00
	CHANNELS 6 Xposition Yposition Zposition Zrotation Xrotation Yrotation
	JOINT LeftUpLeg
	{
		OFFSET	 0.126116	-0.065224	 0.014019
		CHANNELS 3 Zrotation Xrotation Yrotation
		JOINT LeftLeg
		{
			OFFSET	 0.000000	 0.569914	 0.000000
			CHANNELS 3 Zrotation Xrotation Yrotation
			JOINT LeftFoot
			{
				OFFSET	 0.000000	 0.544423	 0.000000
				CHANNELS 3 Zrotation Xrotation Yrotation
				JOINT LeftToeBase
				{
					OFFSET	 0.000000	 0.207117	 0.000000
					CHANNELS 3 Zrotation Xrotation Yrotation
					End Site
					{
						OFFSET	 0.000000	 0.207117	 0.000000
					}
				}
			}
		}
	}
	JOINT RightUpLeg
	{
		OFFSET	-0.124023	-0.065224	 0.008373
		CHANNELS 3 Zrotation Xrotation Yrotation
		JOINT RightLeg
		{
			OFFSET	 0.000000	 0.570047	 0.000000
			CHANNELS 3 Zrotation Xrotation Yrotation
			JOINT RightFoot
			{
				OFFSET	 0.000000	 0.544354	 0.000000
				CHANNELS 3 Zrotation Xrotation Yrotation
				JOINT RightToeBase
				{
					OFFSET	 0.000000	 0.207540	 0.000000
					CHANNELS 3 Zrotation Xrotation Yrotation
					End Site
					{
						OFFSET	 0.000000	 0.207540	 0.000000
					}
				}
			}
		}
	}
	JOINT Spine
	{
		OFFSET	 0.000184	 0.117403	 0.007763
		CHANNELS 3 Zrotation Xrotation Yrotation
		JOINT Spine1
		{
			OFFSET	 0.000000	 0.137269	 0.000000
			CHANNELS 3 Zrotation Xrotation Yrotation
			JOINT Spine2
			{
				OFFSET	 0.000000	 0.156879	 0.000000
				CHANNELS 3 Zrotation Xrotation Yrotation
				JOINT LeftShoulder
				{
					OFFSET	 0.080501	 0.160143	 0.002496
					CHANNELS 3 Zrotation Xrotation Yrotation
					JOINT LeftArm
					{
						OFFSET	 0.000000	 0.164363	 0.000000
						CHANNELS 3 Zrotation Xrotation Yrotation
						JOINT LeftForeArm
						{
							OFFSET	 0.000000	 0.364576	 0.000000
							CHANNELS 3 Zrotation Xrotation Yrotation
							JOINT LeftHand
							{
								OFFSET	 0.000000	 0.360812	 0.000000
								CHANNELS 3 Zrotation Xrotation Yrotation
								JOINT LeftHandIndex1
								{
									OFFSET	 0.000000	 0.086006	 0.000000
									CHANNELS 3 Zrotation Xrotation Yrotation
									JOINT LeftHandIndex2
									{
										OFFSET	 0.000000	 0.047237	 0.000000
										CHANNELS 3 Zrotation Xrotation Yrotation
										JOINT LeftHandIndex3
										{
											OFFSET	-0.004284	 0.038165	 0.000551
											CHANNELS 3 Zrotation Xrotation Yrotation
											End Site
											{
												OFFSET	-0.004284	 0.038165	 0.000551
											}
										}
									}
								}
							}
						}
					}
				}
				JOINT Neck
				{
					OFFSET	 0.000000	 0.176489	 0.000000
					CHANNELS 3 Zrotation Xrotation Yrotation
					JOINT Head
					{
						OFFSET	 0.000000	 0.077941	 0.001747
						CHANNELS 3 Zrotation Xrotation Yrotation
						End Site
						{
							OFFSET	 0.000000	 0.077941	 0.001747
						}
					}
				}
				JOINT RightShoulder
				{
					OFFSET	-0.080363	 0.159706	-0.000306
					CHANNELS 3 Zrotation Xrotation Yrotation
					JOINT RightArm
					{
						OFFSET	 0.000000	 0.164196	 0.000000
						CHANNELS 3 Zrotation Xrotation Yrotation
						JOINT RightForeArm
						{
							OFFSET	 0.000000	 0.365611	 0.000000
							CHANNELS 3 Zrotation Xrotation Yrotation
							JOINT RightHand
							{
								OFFSET	 0.000000	 0.360648	 0.000000
								CHANNELS 3 Zrotation Xrotation Yrotation
								JOINT RightHandIndex1
								{
									OFFSET	 0.000000	 0.069977	 0.000000
									CHANNELS 3 Zrotation Xrotation Yrotation
									JOINT RightHandIndex2
									{
										OFFSET	 0.000000	 0.052305	 0.000000
										CHANNELS 3 Zrotation Xrotation Yrotation
										JOINT RightHandIndex3
										{
											OFFSET	 0.009002	 0.042196	 0.000782
											CHANNELS 3 Zrotation Xrotation Yrotation
											End Site
											{
												OFFSET	 0.009002	 0.042196	 0.000782
											}
										}
									}
								}
							}
						}
					}
				}
			}
		}
	}
}
MOTION
Frames:    6
Frame Time: 0.03333334
-0.106483	 1.266344	-0.070307	 10.380520	-7.193048	-159.798300	-174.098200	 33.544190	 12.250830	 10.439110	-34.238490	 13.394060	 8.480323	 68.494460	-15.353050	 1.153927	 26.579580	-2.656454	 177.450200	 13.227080	 31.935470	-2.656945	-31.460520	 8.492803	 5.358067	 70.116230	-2.729662	-2.131360	 38.341660	 3.136491	-5.976759	 6.538937	 30.680750	-12.027180	 7.464511	 12.608590	 9.452112	-4.677431	-20.618100	-103.180900	 2.725574	 93.113920	 37.435990	 42.819600	 1.223316	 25.611380	-1.281328	 0.207402	 2.147051	 29.831950	 74.343450	 3.874250	 55.123360	-2.221157	-8.806004	 61.581690	 9.122553	 6.613109	 34.403740	 0.048760	 3.945941	-12.124830	-3.899268	 5.331472	-9.801343	-16.241470	 102.985900	 27.788920	-97.893400	-12.307220	 26.632590	-18.400510	-61.359970	-1.977612	-1.114831	 48.111350	 20.669820	 2.719567	-4.894521	 13.079130	-0.625882	 14.074460	 36.437980	-8.834907	-8.484667	 29.620380	-1.614636
-0.108057	 1.266806	-0.068753	 9.791735	-7.335961	-160.045000	-174.672200	 33.271530	 11.826830	 10.269990	-33.809220	 13.325110	 9.208721	 68.399900	-15.758820	 1.132052	 26.282300	-2.647876	 177.035900	 12.639070	 32.536570	-2.543055	-30.354720	 9.748828	 7.695580	 71.328350	-6.008642	-1.931101	 36.170400	 3.023704	-5.915267	 6.629528	 30.324550	-11.862790	 7.035874	 12.320990	 9.462819	-4.554014	-20.428320	-103.649700	 2.617360	 93.054720	 31.791790	 45.469130	 4.292717	 25.502260	-1.276301	 0.204924	 0.331530	 24.666520	 78.901460	 3.893548	 55.102250	-2.235422	-8.790907	 61.519280	 9.102274	 6.615136	 34.446890	 0.048539	 4.055673	-11.913300	-3.871943	 4.882198	-9.689321	-15.996410	 103.502500	 27.278750	-97.898470	-7.714839	 27.308600	-21.278430	-60.080970	-1.952981	-1.070921	 43.399210	 16.827970	-3.202745	-4.899326	 13.071620	-0.626232	 14.085310	 36.504280	-8.855590	-8.484304	 29.650470	-1.616774
-0.108925	 1.267086	-0.067195	 9.040923	-7.215024	-161.145400	-174.788400	 32.584290	 10.542950	 10.164340	-33.538780	 13.155680	 9.388734	 68.427250	-15.697290	 1.124904	 26.184840	-2.645096	 176.561700	 12.197160	 31.959710	-2.496087	-29.891460	 10.531330	 9.617155	 71.951030	-8.387628	-1.831139	 35.040850	 2.969907	-5.644329	 6.624743	 29.812600	-11.796140	 6.876451	 12.223880	 9.510306	-4.605770	-20.066120	-103.963200	 2.536769	 92.988060	 26.987800	 48.100480	 6.182699	 24.260220	-1.218015	 0.177931	 0.940521	 21.282850	 79.787830	 3.899180	 55.114710	-2.240048	-8.774266	 61.450100	 9.079885	 6.617878	 34.505170	 0.048234	 4.115636	-11.548110	-3.760133	 4.344768	-9.513817	-15.381990	 104.191700	 26.689880	-97.920230	-3.206264	 28.707200	-23.363610	-58.243290	-1.916108	-1.008954	 38.113770	 11.662050	-7.242894	-4.884036	 12.979470	-0.619641	 14.082640	 36.487960	-8.850498	-8.484715	 29.616440	-1.614355
-0.110334	 1.268350	-0.066039	 8.066705	-6.798311	-163.294100	-174.459900	 31.218710	 8.237846	 10.013730	-33.150080	 12.796500	 9.157251	 68.451600	-15.217100	 1.134176	 26.311240	-2.648703	 175.844000	 11.991150	 29.985120	-2.528554	-30.212220	 10.730230	 10.582690	 71.882000	-9.260736	-1.832181	 35.052780	 2.970460	-5.172366	 6.486953	 29.091100	-11.886340	 7.078453	 12.333150	 9.619581	-4.861831	-19.497800	-104.111700	 2.484242	 92.911040	 19.973710	 51.140730	 8.984675	 25.727290	-1.286826	 0.209994	 1.742114	 19.278200	 77.004940	 3.889465	 55.165950	-2.233875	-8.755248	 61.370550	 9.054255	 6.621540	 34.582900	 0.047820	 4.119854	-10.993890	-3.547761	 3.695337	-9.263023	-14.325360	 105.101600	 25.988190	-97.956990	 1.902780	 29.995810	-24.092540	-55.018600	-1.846396	-0.903075	 30.710950	 6.205459	-10.009050	-4.845260	 12.787400	-0.604803	 14.064520	 36.376900	-8.815890	-8.486011	 29.508090	-1.606660
-0.108519	 1.269517	-0.063652	 6.918338	-6.076969	-165.723800	-173.991000	 29.479900	 5.717105	 9.789614	-32.564920	 12.366580	 8.661582	 68.335780	-14.620990	 1.144231	 26.448010	-2.652636	 175.082300	 11.750620	 27.849700	-2.587926	-30.793460	 10.931730	 11.716020	 71.868900	-10.453720	-1.833309	 35.065700	 2.971060	-4.601412	 6.567024	 27.736710	-11.480210	 6.640399	 11.734990	 9.611303	-4.710793	-18.856950	-104.272600	 2.427616	 92.827570	 11.137820	 53.961930	 13.204430	 28.889450	-1.432083	 0.285055	 1.753358	 16.978390	 72.395680	 3.878926	 55.221370	-2.227169	-8.734811	 61.284460	 9.026656	 6.625507	 34.667030	 0.047365	 4.122057	-10.394130	-3.318427	 3.008403	-8.998997	-13.176900	 106.081400	 25.224360	-97.983400	 6.706177	 31.148480	-24.230560	-51.333010	-1.759539	-0.787077	 22.128950	 1.010167	-14.744820	-4.803273	 12.579570	-0.588610	 14.045030	 36.256710	-8.778545	-8.487393	 29.390840	-1.598346
-0.103428	 1.269707	-0.060774	 5.972072	-5.443092	-167.826800	-173.462000	 28.109850	 3.515526	 9.612610	-32.096970	 12.066010	 8.025828	 68.232020	-14.064670	 1.148938	 26.511940	-2.654485	 174.812100	 11.406210	 26.055390	-2.591923	-30.832300	 11.043370	 12.481230	 72.067990	-11.302010	-1.789022	 34.555690	 2.947767	-4.090135	 6.642875	 26.358500	-11.027560	 6.053126	 11.134880	 9.536212	-4.404187	-18.232730	-104.468900	 2.494873	 92.782710	 5.541401	 55.266800	 16.843860	 29.779970	-1.472220	 0.307620	 3.234922	 14.538130	 69.623360	 3.775863	 54.490700	-2.143161	-8.555025	 60.500400	 8.781604	 6.599374	 34.110850	 0.050234	 4.119318	-9.963025	-3.103914	 2.532458	-8.702439	-12.062730	 106.988800	 24.407630	-98.000140	 9.774256	 31.742540	-24.747580	-49.715670	-1.719129	-0.737943	 19.330020	-2.228267	-15.503390	-4.632035	 11.955890	-0.499265	 13.894970	 35.303730	-8.486320	-8.499798	 28.237010	-1.517221
